<svg width="220" height="47" viewBox="0 0 220 47" fill="none" xmlns="http://www.w3.org/2000/svg">
<path d="M148.979 4.76347C144.713 4.40802 142.58 6.24993 142.58 10.2892V11.0163H148.979V15.0879H142.58V35.252H138.363V15.0879H134.486V11.0163H138.363V10.2892C138.363 7.02547 139.268 4.55343 141.078 2.87308C142.92 1.19274 145.553 0.465668 148.979 0.691867V4.76347Z" fill="#1E1E1E"/>
<path d="M121.231 10.3862C124.075 10.3862 126.353 11.291 128.065 13.1006C129.778 14.8779 130.634 17.3014 130.634 20.3713V35.252H126.417V20.6136C126.417 18.6425 125.884 17.1237 124.818 16.0573C123.752 14.9586 122.281 14.4093 120.407 14.4093C118.307 14.4093 116.61 15.0717 115.317 16.3966C114.025 17.6892 113.379 19.6927 113.379 22.4071V35.252H109.162V11.0163H113.379V14.5062C115.091 11.7595 117.709 10.3862 121.231 10.3862Z" fill="#1E1E1E"/>
<path d="M100.458 32.1983C97.9697 34.6542 94.9483 35.8822 91.3938 35.8822C87.8392 35.8822 84.8178 34.6542 82.3296 32.1983C79.8737 29.7424 78.6458 26.7211 78.6458 23.1342C78.6458 19.5473 79.8737 16.5259 82.3296 14.07C84.8178 11.6141 87.8392 10.3862 91.3938 10.3862C94.9483 10.3862 97.9697 11.6141 100.458 14.07C102.946 16.5259 104.19 19.5473 104.19 23.1342C104.19 26.7211 102.946 29.7424 100.458 32.1983ZM91.3938 31.7621C93.8173 31.7621 95.8531 30.9381 97.5012 29.29C99.1492 27.642 99.9732 25.5901 99.9732 23.1342C99.9732 20.6783 99.1492 18.6263 97.5012 16.9783C95.8531 15.3303 93.8173 14.5062 91.3938 14.5062C89.0025 14.5062 86.9829 15.3303 85.3348 16.9783C83.6868 18.6263 82.8628 20.6783 82.8628 23.1342C82.8628 25.5901 83.6868 27.642 85.3348 29.29C86.9829 30.9381 89.0025 31.7621 91.3938 31.7621Z" fill="#1E1E1E"/>
<path d="M65.2646 35.8822C61.6131 35.8822 58.5755 34.6704 56.152 32.2468C53.7284 29.7909 52.5166 26.7534 52.5166 23.1342C52.5166 19.515 53.7284 16.4936 56.152 14.07C58.5755 11.6141 61.6131 10.3862 65.2646 10.3862C67.6559 10.3862 69.8048 10.9678 71.7113 12.1311C73.6179 13.2621 75.0397 14.7971 75.9768 16.7359L72.4384 18.7717C71.8244 17.4792 70.8711 16.4451 69.5786 15.6696C68.3183 14.894 66.8803 14.5062 65.2646 14.5062C62.841 14.5062 60.8052 15.3303 59.1572 16.9783C57.5415 18.6263 56.7336 20.6783 56.7336 23.1342C56.7336 25.5577 57.5415 27.5935 59.1572 29.2416C60.8052 30.8896 62.841 31.7136 65.2646 31.7136C66.8803 31.7136 68.3345 31.342 69.627 30.5988C70.9196 29.8232 71.9052 28.7892 72.5838 27.4966L76.1707 29.5809C75.1366 31.4874 73.6502 33.0223 71.7113 34.1857C69.7724 35.3167 67.6235 35.8822 65.2646 35.8822Z" fill="#1E1E1E"/>
<path d="M216.268 32.1983C213.779 34.6542 210.758 35.8822 207.203 35.8822C203.649 35.8822 200.628 34.6542 198.139 32.1983C195.683 29.7424 194.455 26.7211 194.455 23.1342C194.455 19.5473 195.683 16.5259 198.139 14.07C200.628 11.6141 203.649 10.3862 207.203 10.3862C210.758 10.3862 213.779 11.6141 216.268 14.07C218.756 16.5259 220 19.5473 220 23.1342C220 26.7211 218.756 29.7424 216.268 32.1983ZM207.203 31.7621C209.627 31.7621 211.663 30.9381 213.311 29.29C214.959 27.642 215.783 25.5901 215.783 23.1342C215.783 20.6783 214.959 18.6263 213.311 16.9783C211.663 15.3303 209.627 14.5062 207.203 14.5062C204.812 14.5062 202.793 15.3303 201.145 16.9783C199.497 18.6263 198.673 20.6783 198.673 23.1342C198.673 25.5901 199.497 27.642 201.145 29.29C202.793 30.9381 204.812 31.7621 207.203 31.7621Z" fill="#1E1E1E"/>
<path d="M185.255 11.0163H189.424V34.2341C189.424 37.821 188.212 40.6001 185.788 42.5712C183.365 44.5747 180.456 45.5765 177.063 45.5765C174.349 45.5765 172.006 45.0594 170.035 44.0254C168.064 43.0236 166.577 41.5695 165.576 39.6629L169.259 37.5787C170.584 40.2931 173.218 41.6503 177.16 41.6503C179.681 41.6503 181.652 40.9878 183.074 39.6629C184.528 38.3381 185.255 36.5285 185.255 34.2341V30.7927C183.122 34.0241 180.085 35.6398 176.142 35.6398C172.685 35.6398 169.76 34.4119 167.369 31.956C164.978 29.5001 163.782 26.511 163.782 22.9887C163.782 19.4665 164.978 16.4936 167.369 14.07C169.76 11.6141 172.685 10.3862 176.142 10.3862C180.117 10.3862 183.155 11.9857 185.255 15.1848V11.0163ZM170.471 29.1446C172.119 30.7927 174.171 31.6167 176.627 31.6167C179.083 31.6167 181.135 30.7927 182.783 29.1446C184.431 27.4966 185.255 25.4446 185.255 22.9887C185.255 20.5652 184.431 18.5294 182.783 16.8813C181.135 15.2333 179.083 14.4093 176.627 14.4093C174.171 14.4093 172.119 15.2333 170.471 16.8813C168.823 18.5294 167.999 20.5652 167.999 22.9887C167.999 25.4446 168.823 27.4966 170.471 29.1446Z" fill="#1E1E1E"/>
<path d="M156.622 6.60539C155.814 6.60539 155.135 6.33072 154.586 5.78138C154.036 5.23203 153.762 4.56959 153.762 3.79404C153.762 3.0185 154.036 2.35606 154.586 1.80671C155.135 1.22506 155.814 0.934229 156.622 0.934229C157.397 0.934229 158.06 1.22506 158.609 1.80671C159.158 2.35606 159.433 3.0185 159.433 3.79404C159.433 4.56959 159.158 5.23203 158.609 5.78138C158.06 6.33072 157.397 6.60539 156.622 6.60539ZM154.489 35.252V11.0163H158.706V35.252H154.489Z" fill="#1E1E1E"/>
<path d="M18.1872 0.787131C20.005 -0.262378 22.2447 -0.262377 24.0625 0.787131L39.3121 9.59152C41.1299 10.641 42.2497 12.5807 42.2497 14.6797V32.2885C42.2497 34.3876 41.1299 36.3272 39.3121 37.3767L24.0625 46.1811C22.2447 47.2306 20.005 47.2306 18.1872 46.1811L2.93767 37.3767C1.11984 36.3272 4.01967e-06 34.3876 0 32.2885V14.6797C8.28829e-06 12.5807 1.11984 10.641 2.93767 9.59152L18.1872 0.787131ZM22.5937 7.3187C21.6848 6.79394 20.565 6.79394 19.656 7.3187L7.85947 14.1293C6.95056 14.654 6.39064 15.624 6.39064 16.6735V30.2947C6.39064 31.3442 6.95056 32.3142 7.85947 32.839L19.656 39.6495C20.565 40.1743 21.6848 40.1743 22.5937 39.6495L34.3903 32.839C35.2992 32.3142 35.8591 31.3442 35.8591 30.2947V16.6735C35.8591 15.624 35.2992 14.654 34.3903 14.1293L22.5937 7.3187Z" fill="url(#paint0_linear_976_2093)"/>
<path d="M18.1872 0.787131C20.005 -0.262378 22.2447 -0.262377 24.0625 0.787131L39.3121 9.59152C41.1299 10.641 42.2497 12.5807 42.2497 14.6797V32.2885C42.2497 34.3876 41.1299 36.3272 39.3121 37.3767L24.0625 46.1811C22.2447 47.2306 20.005 47.2306 18.1872 46.1811L2.93767 37.3767C1.11984 36.3272 4.01967e-06 34.3876 0 32.2885V14.6797C8.28829e-06 12.5807 1.11984 10.641 2.93767 9.59152L18.1872 0.787131ZM22.5937 7.3187C21.6848 6.79394 20.565 6.79394 19.656 7.3187L7.85947 14.1293C6.95056 14.654 6.39064 15.624 6.39064 16.6735V30.2947C6.39064 31.3442 6.95056 32.3142 7.85947 32.839L19.656 39.6495C20.565 40.1743 21.6848 40.1743 22.5937 39.6495L34.3903 32.839C35.2992 32.3142 35.8591 31.3442 35.8591 30.2947V16.6735C35.8591 15.624 35.2992 14.654 34.3903 14.1293L22.5937 7.3187Z" fill="url(#paint1_linear_976_2093)"/>
<path d="M21.574 22.0286C22.2947 22.0286 22.7003 22.4223 22.7003 23.1216C22.7003 23.8208 22.2946 24.2146 21.574 24.2146C20.8532 24.2146 20.4473 23.8209 20.4472 23.1216C20.4472 22.4223 20.8532 22.0286 21.574 22.0286Z" fill="#00E581"/>
<path fill-rule="evenodd" clip-rule="evenodd" d="M20.1299 16.225C22.4935 14.9474 26.0104 13.3197 26.9738 13.8758C27.8884 14.4038 28.2234 18.2555 28.3616 20.9775C28.4678 23.0714 28.2481 26.8063 25.1679 32.1415C24.8745 32.6496 24.0965 33.4338 23.3322 32.5048C22.5678 31.5757 22.1192 30.3815 21.9903 29.9006C20.5298 31.0221 17.3341 33.1069 16.2365 32.4732C15.1391 31.8395 15.4484 28.0887 15.7402 26.2924C14.9974 26.4055 13.3418 26.5741 12.6616 26.344C11.8115 26.0564 11.4422 25.64 11.9057 24.485C12.8759 22.3352 16.2598 18.3169 20.1299 16.225ZM21.3531 19.4251C21.1875 19.4253 21.0257 19.474 20.889 19.5646C20.7524 19.6553 20.6471 19.7837 20.5867 19.9333L20.3841 20.4299L19.7666 20.7771L19.2226 20.6967C19.0585 20.6727 18.8905 20.6972 18.741 20.767C18.5915 20.8369 18.4671 20.9489 18.3842 21.0883L18.164 21.4584C18.0811 21.5978 18.0436 21.7584 18.0561 21.9189C18.0686 22.0793 18.1305 22.2324 18.2339 22.3581L18.5786 22.7759V23.4669L18.2339 23.8847C18.1304 24.0105 18.0685 24.1638 18.0561 24.3244C18.0437 24.4848 18.0816 24.6452 18.1647 24.7844L18.3849 25.1552C18.4679 25.2945 18.592 25.4064 18.7414 25.4762C18.8908 25.5459 19.0587 25.5705 19.2226 25.5465L19.7684 25.4658L20.3841 25.8108L20.5857 26.3092C20.646 26.4588 20.7513 26.5875 20.888 26.6782C21.0246 26.7689 21.1864 26.8177 21.352 26.8181H21.7941C21.9597 26.8177 22.1215 26.7689 22.2582 26.6782C22.3948 26.5875 22.5001 26.4588 22.5605 26.3092L22.762 25.8108L23.3777 25.4658L23.9235 25.5465C24.0875 25.5704 24.2554 25.5457 24.4048 25.4758C24.5541 25.406 24.6783 25.2941 24.7612 25.1549L24.9814 24.7844C25.0642 24.6451 25.1017 24.4848 25.0893 24.3244C25.0769 24.1639 25.0151 24.0106 24.9118 23.8847L24.5697 23.4669V22.7759L24.9143 22.3581C25.0179 22.2324 25.0798 22.079 25.0922 21.9185C25.1045 21.758 25.0666 21.5977 24.9835 21.4584L24.763 21.0883C24.6801 20.949 24.5556 20.8369 24.4062 20.767C24.2568 20.6972 24.0893 20.6728 23.9253 20.6967L23.3799 20.7771L22.7649 20.4328L22.5623 19.9333C22.5018 19.7837 22.3963 19.6553 22.2596 19.5646C22.1229 19.474 21.9611 19.4255 21.7956 19.4251H21.3531Z" fill="#00E581"/>
<path d="M21.574 22.0286C22.2947 22.0286 22.7003 22.4223 22.7003 23.1216C22.7003 23.8208 22.2946 24.2146 21.574 24.2146C20.8532 24.2146 20.4473 23.8209 20.4472 23.1216C20.4472 22.4223 20.8532 22.0286 21.574 22.0286Z" fill="#00E581"/>
<path fill-rule="evenodd" clip-rule="evenodd" d="M20.1299 16.225C22.4935 14.9474 26.0104 13.3197 26.9738 13.8758C27.8884 14.4038 28.2234 18.2555 28.3616 20.9775C28.4678 23.0714 28.2481 26.8063 25.1679 32.1415C24.8745 32.6496 24.0965 33.4338 23.3322 32.5048C22.5678 31.5757 22.1192 30.3815 21.9903 29.9006C20.5298 31.0221 17.3341 33.1069 16.2365 32.4732C15.1391 31.8395 15.4484 28.0887 15.7402 26.2924C14.9974 26.4055 13.3418 26.5741 12.6616 26.344C11.8115 26.0564 11.4422 25.64 11.9057 24.485C12.8759 22.3352 16.2598 18.3169 20.1299 16.225ZM21.3531 19.4251C21.1875 19.4253 21.0257 19.474 20.889 19.5646C20.7524 19.6553 20.6471 19.7837 20.5867 19.9333L20.3841 20.4299L19.7666 20.7771L19.2226 20.6967C19.0585 20.6727 18.8905 20.6972 18.741 20.767C18.5915 20.8369 18.4671 20.9489 18.3842 21.0883L18.164 21.4584C18.0811 21.5978 18.0436 21.7584 18.0561 21.9189C18.0686 22.0793 18.1305 22.2324 18.2339 22.3581L18.5786 22.7759V23.4669L18.2339 23.8847C18.1304 24.0105 18.0685 24.1638 18.0561 24.3244C18.0437 24.4848 18.0816 24.6452 18.1647 24.7844L18.3849 25.1552C18.4679 25.2945 18.592 25.4064 18.7414 25.4762C18.8908 25.5459 19.0587 25.5705 19.2226 25.5465L19.7684 25.4658L20.3841 25.8108L20.5857 26.3092C20.646 26.4588 20.7513 26.5875 20.888 26.6782C21.0246 26.7689 21.1864 26.8177 21.352 26.8181H21.7941C21.9597 26.8177 22.1215 26.7689 22.2582 26.6782C22.3948 26.5875 22.5001 26.4588 22.5605 26.3092L22.762 25.8108L23.3777 25.4658L23.9235 25.5465C24.0875 25.5704 24.2554 25.5457 24.4048 25.4758C24.5541 25.406 24.6783 25.2941 24.7612 25.1549L24.9814 24.7844C25.0642 24.6451 25.1017 24.4848 25.0893 24.3244C25.0769 24.1639 25.0151 24.0106 24.9118 23.8847L24.5697 23.4669V22.7759L24.9143 22.3581C25.0179 22.2324 25.0798 22.079 25.0922 21.9185C25.1045 21.758 25.0666 21.5977 24.9835 21.4584L24.763 21.0883C24.6801 20.949 24.5556 20.8369 24.4062 20.767C24.2568 20.6972 24.0893 20.6728 23.9253 20.6967L23.3799 20.7771L22.7649 20.4328L22.5623 19.9333C22.5018 19.7837 22.3963 19.6553 22.2596 19.5646C22.1229 19.474 21.9611 19.4255 21.7956 19.4251H21.3531Z" fill="#00E581"/>
<defs>
<linearGradient id="paint0_linear_976_2093" x1="9.22424" y1="3.09876" x2="37.0624" y2="41.691" gradientUnits="userSpaceOnUse">
<stop stop-color="#0087FF"/>
<stop offset="1" stop-color="#005199"/>
</linearGradient>
<linearGradient id="paint1_linear_976_2093" x1="9.22424" y1="3.09876" x2="37.0624" y2="41.691" gradientUnits="userSpaceOnUse">
<stop stop-color="#0087FF"/>
<stop offset="1" stop-color="#005199"/>
</linearGradient>
</defs>
</svg>
